<svg width="74" height="73" viewBox="0 0 74 73" fill="none" xmlns="http://www.w3.org/2000/svg">
<path d="M27.875 33.4583V60.8333M27.875 33.4583H14.4905C12.787 33.4583 11.9361 33.4583 11.2854 33.7898C10.7131 34.0814 10.2481 34.5464 9.95652 35.1187C9.625 35.7694 9.625 36.6218 9.625 38.3253V60.8333H27.875M27.875 33.4583V17.0336C27.875 15.3301 27.875 14.4777 28.2065 13.8271C28.4981 13.2547 28.9631 12.7898 29.5354 12.4981C30.1861 12.1666 31.037 12.1666 32.7405 12.1666H41.2571C42.9606 12.1666 43.8142 12.1666 44.4648 12.4981C45.0371 12.7898 45.5007 13.2547 45.7923 13.8271C46.1238 14.4777 46.125 15.3301 46.125 17.0336V24.3333M27.875 60.8333H46.125M46.125 60.8333L64.375 60.8336V29.2003C64.375 27.4968 64.3738 26.6444 64.0423 25.9937C63.7507 25.4214 63.2889 24.9564 62.7166 24.6648C62.066 24.3333 61.2118 24.3333 59.5083 24.3333H46.125M46.125 60.8333V24.3333" stroke="#0C83A1" stroke-width="6" stroke-linecap="round" stroke-linejoin="round"/>
</svg>
