<svg width="73" height="73" viewBox="0 0 73 73" fill="none" xmlns="http://www.w3.org/2000/svg">
<path d="M9.125 33.4584V48.059C9.125 51.466 9.125 53.1686 9.78804 54.4699C10.3713 55.6145 11.3012 56.5461 12.4459 57.1293C13.7459 57.7917 15.4486 57.7917 18.8489 57.7917H54.1511C57.5514 57.7917 59.2516 57.7917 60.5517 57.1293C61.6963 56.5461 62.6294 55.6145 63.2126 54.4699C63.875 53.1698 63.875 51.4696 63.875 48.0693V33.4584M9.125 33.4584V27.375M9.125 33.4584H63.875M9.125 27.375V24.9423C9.125 21.5353 9.125 19.8306 9.78804 18.5293C10.3713 17.3846 11.3012 16.4546 12.4459 15.8714C13.7472 15.2084 15.4519 15.2084 18.8589 15.2084H54.1423C57.5492 15.2084 59.2504 15.2084 60.5517 15.8714C61.6963 16.4546 62.6294 17.3846 63.2126 18.5293C63.875 19.8293 63.875 21.532 63.875 24.9323V27.375M9.125 27.375H63.875M21.2917 45.625H33.4583M63.875 33.4584V27.375" stroke="#0C83A1" stroke-width="6" stroke-linecap="round" stroke-linejoin="round"/>
</svg>
