<svg width="62" height="64" viewBox="0 0 62 64" fill="none" xmlns="http://www.w3.org/2000/svg">
<path d="M53.6393 63.8853H27.0205C26.3259 63.8894 25.6572 63.622 25.1571 63.1399L15.2815 53.4773H11.0492V48.1535H16.3729C17.0583 48.1562 17.7162 48.4232 18.2096 48.8988L28.0851 58.5615H53.6393C54.3453 58.5615 55.0223 58.281 55.5215 57.7818C56.0207 57.2826 56.3012 56.6056 56.3012 55.8996C56.3012 55.1936 56.0207 54.5166 55.5215 54.0174C55.0223 53.5182 54.3453 53.2377 53.6393 53.2377H40.3299V47.9139H53.6393C55.7573 47.9139 57.7885 48.7553 59.2861 50.2529C60.7837 51.7505 61.625 53.7817 61.625 55.8996C61.625 58.0175 60.7837 60.0487 59.2861 61.5463C57.7885 63.0439 55.7573 63.8853 53.6393 63.8853Z" fill="#0C83A1"/>
<path d="M35.0061 55.8996C33.9533 55.9022 32.9103 55.6966 31.9373 55.2946C30.9642 54.8925 30.0803 54.302 29.3363 53.5571L25.3435 49.5643L29.1233 45.811L33.1161 49.8038C33.3643 50.0503 33.6586 50.2455 33.9823 50.3782C34.3059 50.5109 34.6525 50.5785 35.0022 50.5773C35.352 50.576 35.6981 50.5059 36.0207 50.3709C36.3434 50.2359 36.6364 50.0387 36.8828 49.7905C37.1293 49.5423 37.3243 49.2481 37.457 48.9245C37.5897 48.6009 37.6574 48.2543 37.6562 47.9045C37.6549 47.5547 37.5848 47.2086 37.4498 46.886C37.3148 46.5633 37.1177 46.2705 36.8695 46.024L28.3514 37.5059H11.0492V32.1822H29.4427C29.793 32.1801 30.1403 32.2473 30.4646 32.3797C30.789 32.5122 31.084 32.7074 31.3327 32.9541L40.6493 42.2707C41.7647 43.3875 42.524 44.8098 42.8316 46.358C43.1391 47.9061 42.9812 49.5107 42.3773 50.969C41.7735 52.4273 40.751 53.6739 39.4391 54.5515C38.1271 55.4291 36.5845 55.8982 35.0061 55.8996Z" fill="#0C83A1"/>
<path d="M8.36066 58.7746H0.375V53.4507H3.03689V34.8175H0.375V29.4938H8.36066V58.7746Z" fill="#0C83A1"/>
<path d="M45.6271 7.9856H40.3033V15.9713H45.6271V7.9856Z" fill="#0C83A1"/>
<path d="M53.6127 0H48.2889V10.6475H53.6127V0Z" fill="#0C83A1"/>
<path d="M48.3157 39.9282C46.2098 39.9282 44.1512 39.3037 42.4002 38.1338C40.6492 36.9638 39.2844 35.3009 38.4785 33.3553C37.6726 31.4097 37.4618 29.2689 37.8727 27.2035C38.2835 25.138 39.2976 23.2408 40.7867 21.7517C42.2758 20.2627 44.1729 19.2486 46.2383 18.8378C48.3038 18.427 50.4446 18.6377 52.3902 19.4436C54.3358 20.2495 55.9988 21.6142 57.1687 23.3652C58.3387 25.1162 58.9632 27.1748 58.9632 29.2807C58.9632 32.1046 57.8414 34.8129 55.8446 36.8097C53.8478 38.8065 51.1396 39.9282 48.3157 39.9282ZM48.3157 23.9569C47.2627 23.9569 46.2334 24.2692 45.3579 24.8542C44.4824 25.4391 43.8 26.2706 43.3971 27.2433C42.9941 28.2161 42.8887 29.2866 43.0941 30.3193C43.2995 31.352 43.8066 32.3006 44.5511 33.0452C45.2956 33.7897 46.2443 34.2968 47.277 34.5022C48.3097 34.7076 49.3802 34.6021 50.353 34.1992C51.3258 33.7962 52.1571 33.1139 52.7421 32.2384C53.3271 31.363 53.6394 30.3336 53.6394 29.2807C53.6394 27.8687 53.0785 26.5146 52.0801 25.5162C51.0817 24.5178 49.7276 23.9569 48.3157 23.9569Z" fill="#0C83A1"/>
</svg>
