<svg width="74" height="73" viewBox="0 0 74 73" fill="none" xmlns="http://www.w3.org/2000/svg">
<path d="M50.6875 28.5917L23.3125 12.8054" stroke="#0C83A1" stroke-width="6" stroke-linecap="round" stroke-linejoin="round"/>
<path d="M64.375 48.6667V24.3334C64.3739 23.2666 64.0923 22.2188 63.5584 21.2952C63.0246 20.3716 62.2572 19.6047 61.3333 19.0713L40.0417 6.90461C39.1169 6.37069 38.0678 6.0896 37 6.0896C35.9322 6.0896 34.8831 6.37069 33.9583 6.90461L12.6667 19.0713C11.7428 19.6047 10.9754 20.3716 10.4416 21.2952C9.9077 22.2188 9.62609 23.2666 9.625 24.3334V48.6667C9.62609 49.7335 9.9077 50.7812 10.4416 51.7048C10.9754 52.6284 11.7428 53.3954 12.6667 53.9288L33.9583 66.0954C34.8831 66.6294 35.9322 66.9105 37 66.9105C38.0678 66.9105 39.1169 66.6294 40.0417 66.0954L61.3333 53.9288C62.2572 53.3954 63.0246 52.6284 63.5584 51.7048C64.0923 50.7812 64.3739 49.7335 64.375 48.6667Z" stroke="#0C83A1" stroke-width="6" stroke-linecap="round" stroke-linejoin="round"/>
<path d="M10.4463 21.17L37 36.5305L63.5538 21.17" stroke="#0C83A1" stroke-width="6" stroke-linecap="round" stroke-linejoin="round"/>
<path d="M37 67.16V36.5" stroke="#0C83A1" stroke-width="6" stroke-linecap="round" stroke-linejoin="round"/>
</svg>
