<svg width="73" height="73" viewBox="0 0 73 73" fill="none" xmlns="http://www.w3.org/2000/svg">
<path d="M9.125 9.125H9.94122C11.3823 9.125 12.1041 9.125 12.6919 9.38499C13.2101 9.61423 13.6532 9.98329 13.9727 10.4513C14.3344 10.9812 14.4651 11.6888 14.7258 13.1013L21.2918 48.6668L52.9913 48.6667C54.3698 48.6667 55.0612 48.6667 55.6322 48.4231C56.1366 48.2079 56.5715 47.8595 56.8946 47.4164C57.2599 46.9153 57.4147 46.2446 57.724 44.9044L57.7263 44.8949L62.4994 24.2115L62.5004 24.2072C62.9696 22.1742 63.2047 21.1553 62.9465 20.356C62.7199 19.6547 62.2432 19.0601 61.6108 18.6817C60.8894 18.25 59.8472 18.25 57.7574 18.25H16.7292M54.75 63.875C53.0701 63.875 51.7083 62.5132 51.7083 60.8333C51.7083 59.1535 53.0701 57.7917 54.75 57.7917C56.4299 57.7917 57.7917 59.1535 57.7917 60.8333C57.7917 62.5132 56.4299 63.875 54.75 63.875ZM24.3333 63.875C22.6535 63.875 21.2917 62.5132 21.2917 60.8333C21.2917 59.1535 22.6535 57.7917 24.3333 57.7917C26.0132 57.7917 27.375 59.1535 27.375 60.8333C27.375 62.5132 26.0132 63.875 24.3333 63.875Z" stroke="#0C83A1" stroke-width="6" stroke-linecap="round" stroke-linejoin="round"/>
</svg>
